<svg xmlns="http://www.w3.org/2000/svg" version="1.1" xmlns:xlink="http://www.w3.org/1999/xlink" xmlns:svgjs="http://svgjs.dev/svgjs" viewBox="0 0 800 800" opacity="0.16"><defs><linearGradient x1="50%" y1="0%" x2="50%" y2="100%" id="wwwhirl-grad"><stop stop-color="hsl(206, 75%, 49%)" stop-opacity="1" offset="45%"></stop><stop stop-color="hsl(331, 90%, 56%)" stop-opacity="1" offset="100%"></stop></linearGradient></defs><g stroke-width="2" stroke="url(#wwwhirl-grad)" fill="none" stroke-linecap="round"><path d="M61.75000234603888 433.2342386924226C74.56250270149933 415.55298820188716 97.62500334132812 345.673611263206 123.25000405224898 348.3642363378527C148.87500476316984 351.05486141249935 159.12500504753822 441.7289264280929 184.75000575845908 446.14923905072675C210.37500646937994 450.5695516733606 220.62500675374832 375.34736208645234 246.25000746466918 369.5817369264951C271.8750081755901 363.816111766538 282.12500845995845 412.70861312297495 307.7500091708793 418.47423828293216C333.37500988180017 424.2398634428894 343.6250101661685 390.53017500767294 369.2500108770894 397.2567376942897C394.87501158801024 403.9833003809064 405.1250118723786 459.6023644239602 430.75001258329945 450.7617391786925C456.37501329422037 441.92111393342475 466.6250135785887 360.2029866662981 492.2500142895096 354.82173651700475C517.8750150004304 349.44048636771134 528.1250152847988 420.7036133447823 553.7500159957197 424.93173846208424C579.3750167066405 429.1598635793862 589.6250169910089 373.3870495320669 615.2500177019299 375.11673708005407C640.8750184128507 376.84642462804123 651.1250186972192 426.315488500474 676.7500194081399 433.2342386924226C702.3750201190607 440.1529888843712 725.4375207588895 413.515800645369 738.2500211143499 408.32673800140753 " transform="rotate(99, 400, 400)"></path><path d="M72.0000022749468 432.22712228591985C84.42424504387813 415.0816672647946 106.78788202795454 347.31984720304314 131.6363675658172 349.9289381845187C156.48485310367988 352.53802916599426 166.42424731882494 440.4643952417213 191.27273285668758 444.75075899700266C216.12121839455025 449.03712275228395 226.06061260969534 376.0943934558881 250.909098147558 370.503484209869C275.7575836854206 364.9125749638499 285.69697790056574 412.3234853700919 310.54546343842844 417.91439461611094C335.3939489762911 423.50530386213006 345.33334319143614 390.8171211370717 370.1818287292988 397.33984859076065C395.03031426716143 403.8625760444496 404.96970848230654 457.7962139043805 429.81819402016924 449.2234863938179C454.66667955803183 440.6507588832553 464.606073773177 361.40893850301126 489.4545593110396 356.1907565400601C514.3030448489022 350.97257457710896 524.2424390640473 420.07621285790503 549.09092460191 424.1762129716524C573.9394101397727 428.2762130853997 583.8788043549177 374.1934843122416 608.7272898927804 375.8707570860473C633.5757754306431 377.54802985985305 643.5151696457882 425.51803119069695 668.3636551836508 432.22712228591985C693.2121407215134 438.9362133811428 715.5757777055898 413.10621266453455 728.0000204745212 408.0743943431173 " transform="rotate(96, 400, 400)"></path><path d="M82.2500022038547 431.22001350881163C94.28598738625693 414.61035395709655 115.95076071458097 348.9660907722748 140.0227310793854 351.49364766057926C164.09470144418987 354.02120454888376 173.72348959011163 439.1998716847443 197.7954599549161 443.35228657267305C221.86743031972057 447.50470146060184 231.49621846564236 376.84143245471836 255.56818883044681 371.4252391226374C279.6401591952513 366.00904579055634 289.2689473411731 411.93836524660327 313.3409177059775 417.3545585786843C337.41288807078195 422.7707519107653 347.0416762167037 391.10407489586504 371.1136465815082 397.4229671166262C395.1856169463127 403.7418593373873 404.81440509223444 455.99007101419545 428.8863754570389 447.6852412383379C452.95834582184335 439.3804114624803 462.58713396776517 362.61489796911894 486.65910433256965 357.55978419251C510.7310746973741 352.50467041590105 520.3598628432958 419.44882000042224 544.4318332081002 423.420695110615C568.5038035729049 427.3925702208077 578.1325917188265 374.9999267218108 602.204562083631 376.6247847214351C626.2765324484355 378.24964272105944 635.9053205943574 424.72058151031445 659.9772909591617 431.22001350881163C684.0492613239661 437.7194455073088 705.7140346522901 412.6966323130946 717.7500198346924 407.8220583142217 " transform="rotate(93, 400, 400)"></path><path d="M92.50000213276263 430.21292380518975C104.14772972863575 414.13905972288484 125.11363940120738 350.6123534149928 148.40909459295364 353.0583762101262C171.70454978469985 355.50439900525953 181.02273186139837 437.93536720125365 204.3181870531446 441.9538332218299C227.61364224489085 445.9722992424061 236.9318243215894 377.588490527035 260.22727951333565 372.34701310889204C283.5227347050819 367.10553569074915 292.8409167817804 411.553264196601 316.13637197352665 416.79474161474394C339.43182716527286 422.03621903288683 348.7500092419713 391.39104772814466 372.0454644337176 397.50610471597804C395.34091962546387 403.6211617038114 404.6591017021624 454.18394719749665 427.9545568939086 446.1470151563442C451.2500120856548 438.11008311519174 460.5681941623534 363.82087650871296 483.8636493540996 358.92883091844624C507.1591045458458 354.0367853281795 516.4772866225443 418.82144621642584 539.7727418142906 422.665196323064C563.0681970060368 426.5089464297021 572.3863790827354 375.8063882048664 595.6818342744816 377.3788314303093C618.977289466228 378.9512746557521 628.2954715429264 423.9231509034183 651.5909267346726 430.21292380518975C674.8863819264188 436.5026967069613 695.8522915989904 412.287071035141 707.5000191948636 407.5697413588124 " transform="rotate(90, 400, 400)"></path><path d="M102.75000206167054 429.20582265747606C114.00947207101456 413.66775404458133 134.2765180878338 352.258604613619 156.79545810652183 354.6230933155813C179.3143981252099 356.9875820175435 188.3219741326851 436.6708512736712 210.8409141513731 440.55536842689486C233.35985417006117 444.4398855801185 242.3674301775364 378.3355371552598 264.88637019622445 373.26877565105497C287.40531021491245 368.20201414685016 296.4128862223877 411.168151702507 318.9318262410758 416.2349132067118C341.4507662597638 421.3016747109166 350.458342267239 391.6780091163325 372.977282285927 397.58923087123804C395.49622230461506 403.50045262614367 404.5037983120903 452.37781193670605 427.02273833077834 444.6087776302587C449.54167834946634 436.8397433238113 458.5492543569416 365.0268436042152 481.0681943756296 360.2978662002907C503.5871343943177 355.5688887963662 512.5947104017928 418.19406098833764 535.1136504204809 421.9096860914212C557.632590439169 425.62531119450466 566.6401664466441 376.61283824383014 589.1591064653323 378.1328666950916C611.6780464840203 379.65289514635305 620.6856224914956 423.1257088524303 643.2045625101836 429.20582265747606C665.7235025288716 435.2859364625218 685.9905485456908 411.87749831309566 697.2500185550348 407.3174129593113 " transform="rotate(87, 400, 400)"></path><path d="M113.00000199057845 428.19873676855144C123.87121441339336 413.1964636250669 143.43939677446022 353.90487107103434 165.18182162009003 356.18782567982544C186.92424646571988 358.4707802886166 195.6212164039718 435.40635060487773 217.36364124960164 439.1569188907489C239.10606609523148 442.90748717662 247.8030360334834 379.08259904227367 269.54546087911325 374.19055345200695C291.2878857247431 369.29850786174023 299.984855662995 410.78305446720196 321.72728050862486 415.6751000574687C343.4697053542547 420.5671456477354 352.1666752925066 391.96498576330936 373.9091001381364 397.67237228528717C395.65152498376625 403.379758807265 404.34849492201823 450.5716919347045 426.0909197676481 443.0705553629623C447.83334461327786 435.56941879121996 456.53031455152984 366.23282595850645 478.2727393971597 361.6669167409242C500.0151642427894 357.1010075233419 508.71213418104134 417.56669101903844 530.4545590266712 421.1541911185674C552.1969838723012 424.7416912180963 560.8939538105531 377.41930354158296 582.6363786561828 378.886917218663C604.3788035018127 380.354530895743 613.0757734400647 422.3282820602314 634.8181982856945 428.19873676855144C656.5606231313242 434.06919147687154 676.128805492391 411.4679408498393 687.0000179152061 407.06509981859926 " transform="rotate(84, 400, 400)"></path><path d="M123.25000191948637 427.191639435535C133.73295675577216 412.72516176146064 152.60227546108663 355.5511260843578 173.56818513365826 357.7525465999778C194.5340948062299 359.95396711559783 202.92045867525854 434.14183849199253 223.88636834783017 437.75845791051114C244.8522780204018 441.37507732902975 253.23864188943045 379.8296494851957 274.20455156200205 375.11231980886714C295.1704612345737 370.3949901325385 303.55682510360236 410.39794578780516 324.522734776174 415.1152754641338C345.4886444487456 419.8326051404624 353.87500831777425 392.25195096619444 374.8409179903458 397.7555022552445C395.8068276629175 403.25905354429455 404.1931915319461 448.76556048861124 425.15910120451775 441.532321651574C446.1250108770894 434.2990828145368 454.51137474611807 367.43879686870594 475.4772844186897 363.03595583746585C496.44319409126126 358.6331148062258 504.8295579602899 416.9393096056475 525.7954676328616 420.39868470162185C546.7613773054331 423.8580597975962 555.1477411744618 378.225757395244 576.1136508470336 379.6409562981426C597.0795605196051 381.0561552010412 605.4659243886338 421.5308438239407 626.4318340612053 427.191639435535C647.3977437337769 432.8524350471294 666.2670624390914 411.0583719424912 676.7500172753772 406.81277523379543 " transform="rotate(81, 400, 400)"></path><path d="M133.50000184839428 426.1845459172159C143.59469909815098 412.2538637125516 161.76515414771308 357.19738491237854 181.9545486472265 359.31727133482747C202.1439431467399 361.43715775727634 210.21970094654526 432.8773301938046 230.40909544605867 436.36000074497065C250.59848994557206 439.8426712961367 258.67424774537744 380.5767037428151 278.8636422448909 376.03408998042454C299.05303674440427 371.49147621803405 307.12879454420965 410.0128409231056 327.3181890437231 414.55545468549616C347.5075835432365 419.0980684478867 355.58334134304187 392.5389199837768 375.7727358425552 397.83863603989903C395.9621303420687 403.1383520960213 404.037888141874 446.9594328572152 424.2272826413875 439.9940917548831C444.4166771409009 433.0287506525509 452.49243494070623 368.6447715936026 472.6818294402197 364.4049987487048C492.871223939733 360.165225903807 500.94698173953844 416.31193200695384 521.1363762390519 419.6431820993736C541.3257707385653 422.97443219179326 549.4015285383707 379.0322150636023 569.5909230378841 380.39499919231946C589.7803175373975 381.75778332103664 597.8560753372029 420.73340940234726 618.0454698367163 426.1845459172159C638.2348643362296 431.63568243208454 656.4053193857917 410.6488068498403 666.5000166355485 406.56045446368887 " transform="rotate(78, 400, 400)"></path><path d="M143.7500017773022 425.1774409548049C153.45644144052977 411.78255421955083 170.9280328343395 358.8436322963075 190.3409121607947 360.8819846255853C209.75379148724988 362.9203369548631 217.51894321783197 431.61281045152487 236.93182254428717 434.96153213533836C256.34470187074237 438.31025381915185 264.10985360132446 381.3237465563426 283.52273292777966 376.9558487078902C302.9356122542349 372.5879508594378 310.700763984817 409.62772461431433 330.1136433112722 413.99562246276673C349.52652263772745 418.3635203112192 357.2916743683095 392.82587755726735 376.7045536947647 397.9217583804618C396.1174330212199 403.0176392036563 403.88258475180197 445.15329378172737 423.2954640782572 438.45585041410027C442.70834340471237 431.7584070464733 450.4734951352945 369.8507348744076 469.88637446174965 365.774030215852C489.29925378820485 361.6973255572964 497.06440551878694 415.6845429641684 516.4772848452421 418.88766805303345C535.8901641716974 422.0907931418986 543.6553159022794 379.83866128786883 563.0681952287347 381.1490306424045C582.4810745551899 382.45939999694025 590.246226285772 419.93596353666203 609.6591056122272 425.1774409548049C629.0719849386824 430.4189183729478 646.543576332492 410.23923031309766 656.2500159957197 406.30812224949045 " transform="rotate(75, 400, 400)"></path><path d="M153.99998644742104 424.17033980709124C163.31816852411953 411.3112485412473 180.09089626217684 360.4898834949337 198.72726041557385 362.4467017310404C217.36362456897083 364.4035199671471 224.81817023032963 430.3482945239424 243.45453438372664 433.56306734040334C262.0908985371236 436.77784015686433 269.5454441984824 382.07079318456744 288.18180835187945 377.8776112500531C306.81817250527644 373.6844293155388 314.2727181666353 409.24261212022026 332.90908232003227 413.4357940547346C351.54544647342925 417.62897598924894 358.99999213478804 393.11283894545517 377.636356288185 398.0048845357219C396.272720441582 402.8969301259886 403.7272661029408 443.3471585209368 422.36363025633784 436.9176128880148C440.9999944097348 430.48806725509286 448.4545400710936 371.0567019699098 467.09090422449066 367.14306549769645C485.7272683778876 363.22942902548306 493.1818140392464 415.0571577360801 511.8181781926434 418.13215782139065C530.4545423460404 421.2071579067011 537.9090880073993 380.64511132683253 556.5454521607962 381.9030659071869C575.1818163141934 383.1610204875412 582.6363619755521 419.13852148567406 601.272726128949 424.17033980709124C619.9090902823459 429.2021581285085 636.6818180204033 409.8296575910523 646.0000000971017 406.05579384998936 " transform="rotate(72, 400, 400)"></path><path d="M164.24998637632893 423.1632424740748C173.17991086649835 410.8399466776411 189.25377494880325 362.1361385082572 207.11362392914205 364.0114226511928C224.97347290948085 365.8867067941283 232.11741250161634 429.08378241105714 249.97726148195514 432.1646063601656C267.83711046229394 435.24543030927407 274.9810500544295 382.81784362748954 292.84089903476826 378.79937760691325C310.700748015107 374.7809115863371 317.8446876072426 408.8575034408235 335.7045365875814 412.8759694613997C353.5643855679201 416.8944354819759 360.70832516005567 393.39980414834025 378.56817414039443 398.0880145056792C396.4280231207332 402.7762248630181 403.57196271286875 441.54102707484344 421.4318116932075 435.37937917662657C439.29166067354635 429.2177312784097 446.4356002656819 372.2626728801093 464.29544924602067 368.51210459423817C482.1552982263594 364.761536308367 489.29923781849493 414.4297763226892 507.15908679883375 417.37665140444506C525.0189357791726 420.323526486201 532.162875371308 381.4515651804936 550.022724351647 382.65710498666647C567.8825733319857 383.8626447928393 575.0265129241212 418.34108324938336 592.8863619044599 423.1632424740748C610.7462108847988 427.98540169876634 626.8200749671037 409.42008868370414 635.749999457273 405.8034692651855 " transform="rotate(69, 400, 400)"></path><path d="M174.49998630523686 422.1561451410584C183.04165320887716 410.36864481403484 198.41665363542967 363.7823935215807 215.49998744271028 365.57614357134514C232.58332124999083 367.3698936211096 239.4166547729031 427.81927029817194 256.49998858018364 430.7661453799278C273.58332238746425 433.71302046168375 280.4166559103765 383.5648940704116 297.49998971765706 379.72114396377344C314.58332352493767 375.8773938571353 321.41665704784987 408.4723947614267 338.4999908551305 412.3161448680648C355.5833246624111 416.1598949747029 362.4166581853233 393.68676935122534 379.49999199260384 398.1711444756365C396.58332579988445 402.6555196000476 403.4166593227967 439.7348956287501 420.4999931300773 433.84114546523836C437.5833269373578 427.94739530172654 444.41666046027007 373.46864379030876 461.4999942675507 369.8811436907798C478.58332807483123 366.29364359125094 485.4166615977434 413.8023949092982 502.49999540502404 416.6211449874995C519.5833292123046 419.4398950657008 526.416662735217 382.25801903415464 543.4999965424975 383.41114406614605C560.5833303497782 384.5642690981375 567.4166638726904 417.54364501309266 584.4999976799709 422.1561451410584C601.5833314872514 426.7686452690242 616.9583319138039 409.01051977635603 625.4999988174443 405.5511446803817 " transform="rotate(66, 400, 400)"></path><path d="M184.74998623414479 421.14904780804204C192.90339555125595 409.89734295042854 207.5795323220561 365.42864853490414 223.88635095627848 367.1408644914975C240.19316959050084 368.85308044809085 246.7158970441898 426.55475818528674 263.02271567841217 429.36768439969006C279.32953431263456 432.18061061409344 285.8522617663235 384.3119445133337 302.1590804005459 380.64291032063363C318.46589903476826 376.9738761279336 324.9886264884572 408.0872860820299 341.29544512267955 411.75632027472994C357.60226375690195 415.42535446742994 364.1249912105909 393.9737345541104 380.4318098448133 398.2542744455938C396.73862847903564 402.53481433707714 403.26135593272465 437.92876418265683 419.56817456694694 432.30291175385014C435.87499320116933 426.6770593250434 442.3977206548583 374.67461470050824 458.7045392890807 371.25018278732153C475.011357923303 367.8257508741348 481.534085376992 413.17501349590725 497.8409040112144 415.865638570554C514.1477226454367 418.55626364520066 520.6704500991257 383.06447288781567 536.9772687333481 384.16518314562563C553.2840873675705 385.26589340343565 559.8068148212594 416.74620677680196 576.1136334554817 421.14904780804204C592.4204520897041 425.55188883928207 607.0965888605042 408.6009508690079 615.2499981776155 405.29882009557787 " transform="rotate(63, 400, 400)"></path><path d="M194.99998616305268 420.1419600117688C202.76513789363477 409.42605062356546 216.74241100868252 367.07491308497083 232.27271446984668 368.705594948393C247.80301793101086 370.33627681181525 254.01513931547652 425.2902556091447 269.5454427766407 427.96923295619547C285.0757462378049 430.6482103032463 291.28786762227054 385.0590044929989 306.81817108343466 381.564686214237C322.34847454459884 378.070367935475 328.56059592906456 407.70218693937625 344.09089939022874 411.1965052181382C359.62120285139287 414.6908234969001 365.8333242358585 394.26070929373867 381.3636276970227 398.33741395229424C396.89393115818683 402.41411861084987 403.10605254265255 436.12264227330667 418.6363560038167 430.76468757920503C434.16665946498085 425.4067328851034 440.37878084944657 375.8805951474509 455.9090843106107 372.6192314206064C471.4393877717748 369.35786769376193 477.6515091562405 412.5476416192595 493.18181261740466 415.11014169035155C508.71211607856884 417.6726417614437 514.9242374630346 383.87093627821986 530.4545409241987 384.91923176184844C545.984844385363 385.967527245477 552.1969657698285 415.9487780772544 567.7272692309928 420.1419600117688C583.2575726921568 424.3351419462831 597.2348458072046 408.19139149840294 604.9999975377866 405.0465050475172 " transform="rotate(60, 400, 400)"></path><path d="M205.24998609196058 419.1348512346606C212.62688023601356 408.9547373158674 225.90528969530894 368.7211566542025 240.6590779834149 370.2703044244536C255.41286627152084 371.81945219470475 261.31438158676326 424.02573205216765 276.0681698748692 426.570760531866C290.82195816297514 429.11578901156423 296.72347347821756 385.8060434918292 311.4772617663235 382.4864411270053C326.23105005442943 379.1668387621815 332.13256536967185 407.31706681588764 346.8863536577778 410.6366691807115C361.6401419458838 413.95627154553534 367.54165726112615 394.54766305253196 382.2954455492321 398.42053247815977C397.0492338373381 402.2934019037876 402.95074915258044 434.3164993831216 417.7045374406864 429.226442423725C432.4583257287924 424.13638546432844 438.35984104403474 377.0865546135586 453.1136293321407 373.9882590730563C467.86741762024667 370.8899635325541 473.768932935489 411.92024876177675 488.522721223595 414.3546238293142C503.27650951170097 416.7889988968517 509.17802482694333 384.6773786877891 523.9318131150493 385.6732593972362C538.6856014031553 386.66914010668336 544.5871167183977 415.1513283968719 559.3409050065036 419.1348512346606C574.0946932946094 423.11837407244917 587.3731027539048 407.78181114696304 594.7499968979579 404.7941690186216 " transform="rotate(57, 400, 400)"></path><path d="M215.4999860208685 418.1277577163414C222.48862257839238 408.48343926695844 235.06816838193538 370.36741548222324 249.04544149698313 371.83502915930325C263.0227146120309 373.30264283638326 268.61362385804995 422.7612237539797 282.5908969730977 425.1723033663255C296.56817008814545 427.5833829786712 302.1590793341646 386.5530977494485 316.1363524492123 383.4082112985628C330.1136255642601 380.26332484767704 335.70453481027914 406.93196195118816 349.6818079253269 410.0768484020739C363.65908104037464 413.2217348529596 369.24999028639377 394.8346320701143 383.2272634014415 398.50366626281436C397.20453651648927 402.17270045551436 402.7954457625084 432.51037175172553 416.7727188775561 427.68821252703407C430.74999199260384 422.8660533023426 436.340901238623 378.2925293384553 450.3181743536707 375.3573019842953C464.2954474687184 372.4220746301352 469.88635671473753 411.2928711630831 483.8636298297853 413.59912122706595C497.8409029448331 415.9053712910488 503.43181219085216 385.4838363561474 517.4090853058999 386.42730229141307C531.3863584209478 387.3707682266788 536.9772676669668 414.35389397527854 550.9545407820144 418.1277577163414C564.9318138970623 421.9016214574043 577.5113597006052 407.37224605431214 584.4999962581292 404.54184824851495 " transform="rotate(54, 400, 400)"></path><path d="M225.74998594977643 417.12065656862774C232.3503649207712 408.01213358865493 244.2310470685618 372.01366668084944 257.43180501055133 373.39974626475833C270.63256295254087 374.78582584866723 275.9128661293367 421.49670782639726 289.1136240713262 423.77383857139046C302.31438201331576 426.05096931638366 307.5946851901116 387.30014437767335 320.7954431321011 384.3299738407257C333.99620107409066 381.35980330377805 339.2765042508865 406.5468494570941 352.477262192876 409.51701999404173C365.67802013486556 412.4871905309894 370.9583233116614 395.12159345830213 384.1590812536509 398.58679241807437C397.35983919564046 402.05199137784666 402.6401423724363 430.70423649093493 415.8409003144258 426.14997500094853C429.0416582564154 421.5957135109622 434.3219614332112 379.49849643395754 447.5227193752007 376.7263372661397C460.72347731719026 373.9541780983219 466.003780493986 410.6654859349948 479.2045384359756 412.8436109954231C492.40529637796516 415.02173605585136 497.685599554761 386.29028639511114 510.8863574967506 387.18133755619544C524.08711543874 388.07238871727975 529.3674186155359 413.5564519242905 542.5681765575255 417.12065656862774C555.7689344995149 420.6848612129649 567.6496166473055 406.9626733322668 574.2499956183003 404.28951984901386 " transform="rotate(51, 400, 400)"></path><path d="M235.99998587868436 416.1135630503086C242.21210726315002 407.54083553974596 253.3939257551882 373.6599255088702 265.8181685241195 374.964470999608C278.24241129305085 376.2690164903458 283.2121084006234 420.2321995282093 295.6363511695547 422.37538140584996C308.0605939384861 424.5185632834906 313.0302910460586 388.04719863529266 325.45453381498993 385.2517440122831C337.87877658392125 382.4562893892736 342.84847369149384 406.16174459239454 355.27271646042516 408.9571992154041C367.6969592293565 411.75265383841366 372.666656336929 395.4085624758845 385.09089910586033 398.66992620272896C397.51514187479165 401.93128992957344 402.4848389823642 428.89810885953887 414.90908175129556 424.6117451042576C427.3333245202268 420.3253813489763 432.30302162779947 380.7044711588543 444.72726439673073 378.0953801773787C457.15150716566205 375.4862891959031 462.1212042732346 410.03810833630115 474.54544704216596 412.0881083931748C486.9696898110973 414.1381084500485 491.9393869186698 387.09674406346943 504.36362968760113 387.9353804503723C516.7878724565326 388.77401683727516 521.7575695641051 412.7590175026971 534.1818123330363 416.1135630503086C546.6060551019676 419.46810859792004 557.7878735940058 406.5531082396159 563.9999949784715 404.0371990789073 " transform="rotate(48, 400, 400)"></path><path d="M246.24998580759225 415.10645808789764C252.0738496055288 407.0695260467452 262.5568044418146 375.30617289279917 274.2045320376877 376.52918429036583C285.85225963356083 377.7521956879325 290.5113506719101 418.96767978592953 302.15907826778323 420.9769127962177C313.80680586365634 422.98614580650576 318.4658969020056 388.79424144882023 330.11362449787873 386.17350273974876C341.7613520937519 383.55276403067734 346.4204431321011 405.77662828360326 358.06817072797423 408.3973669926747C369.71589832384734 411.01810570174615 374.37498936219663 395.69552004937503 386.02271695806974 398.75304854329175C397.67044455394284 401.8105770372084 402.32953559229213 427.09196978405106 413.97726318816524 423.07350376347483C425.62499078403835 419.0550377428986 430.28408182238763 381.9104344396592 441.93180941826074 379.46441164452585C453.57953701413385 377.0183888493925 458.2386280524831 409.4107192935156 469.88635564835624 411.33259434683475C481.53408324422935 413.25446940015377 486.19317428257864 387.9031902877359 497.84090187845175 388.68941190045734C509.4886294743249 389.4756335131788 514.1477205126741 411.96157163701184 525.7954481085472 415.10645808789764C537.4431757044204 418.25134453878337 547.9261305407061 406.14353170287325 553.7499943386428 403.78486686470893 " transform="rotate(45, 400, 400)"></path><path d="M256.49998573650015 414.09936838427575C261.9355919479076 406.5982318125334 271.71968312844103 376.95243553551717 282.5908955512559 378.0939128399127C293.4621079740709 379.23539014430827 297.81059294319687 417.70317530243886 308.68180536601176 419.57845944537445C319.55301778882665 421.45374358831003 323.90150275795264 389.5412995211368 334.7727151807676 387.0952767260035C345.6439276035825 384.64925393087015 349.9924125727084 405.391527233601 360.86362499552337 407.8375500287343C371.7348374183383 410.2835728238677 376.08332238746425 395.98249288165465 386.95453481027914 398.83618614264356C397.82574723309403 401.6898794036325 402.1742322022201 425.28584596735226 413.045444625035 421.53527768148115C423.91665704784987 417.78470939561 428.26514201697586 383.1164129792532 439.1363544397908 380.8334583704621C450.00756686260564 378.55050376167094 454.35605183173163 408.7833455095192 465.2272642545465 410.5770955592837C476.09847667736153 412.37084560904816 480.44696164648747 388.7096517707915 491.31817406930236 389.4434586093315C502.1893864921173 390.1772654478715 506.5378714612433 411.16414103011573 517.4090838840582 414.09936838427575C528.280296306873 417.03459573843577 538.0643874874065 405.7339704249197 543.499993698814 403.53254990929963 " transform="rotate(42, 400, 400)"></path><path d="M266.7499856654081 413.09227105125933C271.7973342902864 406.12692994892717 280.88256181506745 378.59869054884064 290.9772590648242 379.6586337600651C301.0719563145809 380.71857697128956 305.10983521448355 416.43866318955367 315.2045324642403 418.1799984651367C325.29922971399697 419.9213337407197 329.33710861389966 390.2883499640589 339.4318058636564 388.01704308286367C349.52650311341307 385.74573620166836 353.56438201331576 405.0064185542042 363.6590792630725 407.2777254353995C373.7537765128292 409.5490323165947 377.79165541273187 396.2694580845398 387.88635266248855 398.9193161126009C397.9810499122453 401.569174140662 402.0189288121479 423.479714521259 412.1136260619047 419.99704397009293C422.2083233116614 416.5143734189268 426.2462022115641 384.3223838894527 436.34089946132076 382.2024974670038C446.43559671107744 380.0826110445549 450.47347561098013 408.1559640961283 460.56817286073687 409.82158914233815C470.6628701104936 411.487214188548 474.7007490103963 389.5161056244525 484.79544626015297 390.1974976888111C494.8901435099097 390.8788897531697 498.9280224098124 410.366702793825 509.0227196595691 413.09227105125933C519.1174169093258 415.81783930869364 528.2026444341068 405.3244015175715 533.2499930589852 403.2802253244958 " transform="rotate(39, 400, 400)"></path><path d="M276.999985594316 412.08516990354565C281.65907663266523 405.65562427062366 290.04544050169386 380.24494174746684 299.3636225783924 381.2233508655202C308.6818046550909 382.20175998357354 312.4090774857703 415.1741472619712 321.7272595624688 416.78153367020167C331.0454416391673 418.3889200784322 334.7727144698467 391.03539659228375 344.0908965465452 388.93880562502653C353.40907862324366 386.8422146577694 357.1363514539231 404.62130606011016 366.4545335306216 406.7178970273673C375.7727156073201 408.81448799462447 379.4999884379995 396.55641947272755 388.81817051469795 399.00244226786094C398.1363525913965 401.4484650629943 401.86362542207587 421.6735792604684 411.1818074987744 418.4588064440074C420.4999895754729 415.2440336275464 424.22726240615225 385.5283509849549 433.5454444828508 383.5715327488482C442.8636265595493 381.61471451274156 446.5908993902286 407.5285788680401 455.9090814669272 409.0660789106953C465.22726354362567 410.60357895335056 468.9545363743051 390.32255566341627 478.2727184510036 390.9515329535934C487.59090052770216 391.58051024377056 491.3181733583815 409.56926074283706 500.63635543507996 412.08516990354565C509.9545375117784 414.60107906425424 518.340901380807 404.91482879552615 522.9999924191563 403.0278969249947 " transform="rotate(36, 400, 400)"></path><path d="M287.250000782013 411.07806875583196C291.5208342338331 405.18431859232015 299.20833444710934 381.89119294609304 307.7500013507497 382.7880679709753C316.29166825438995 383.6849429958575 319.70833501584605 413.9096313343887 328.25000191948635 415.38306887526664C336.79166882312666 416.8565064161446 340.20833558458276 391.7824432205085 348.75000248822306 389.86056816718946C357.29166939186337 387.9386931138704 360.70833615331946 404.2361935660161 369.25000305695977 406.15806861933515C377.7916699606001 408.0799436726542 381.2083367220562 396.84338086091543 389.7500036256964 399.085568423121C398.2916705293368 401.3277559853266 401.7083372907929 419.8674439996778 410.2500041944332 416.9205689179219C418.79167109807344 413.973693836166 422.2083378595296 386.7343180804571 430.75000476316984 384.94056803069265C439.29167166681015 383.1468179809282 442.70833842826625 406.9011936399518 451.25000533190655 408.3105686790525C459.79167223554686 409.71994371815316 463.208338997003 391.12900570238 471.75000590064326 391.7055682183758C480.2916728042836 392.2821307343715 483.7083395657397 408.7718186918491 492.25000646937997 411.07806875583196C500.7916733730202 413.38431881981484 508.4791735862965 404.5052560734807 512.7500070381167 402.77556852549355 " transform="rotate(33, 400, 400)"></path><path d="M297.50000071092086 410.0709761911871C301.38257657621193 404.7130214970855 308.3712131337358 383.53745272778815 316.1363648643179 384.35279365949924C323.90151659489993 385.1681345912104 327.0075772871328 412.64512398987506 334.7727290177149 413.98461266340047C342.53788074829697 415.3241013369259 345.64394144052983 392.5294984318022 353.40909317111186 390.7823392924212C361.17424490169395 389.03518015304024 364.2803055939268 403.85108965499086 372.0454573245089 405.59824879437184C379.81060905509094 407.3454079337528 382.9166697473238 397.1303508321721 390.6818214779059 399.16870316144986C398.446973208488 401.20705549072767 401.55303390072083 418.0613173219561 409.31818563130287 415.3823399749053C417.08333736188496 412.70336262785446 420.1893980541178 387.9402937590282 427.9545497846999 386.30961189560594C435.71970151528194 384.6789300321837 438.8257622075148 406.2738169949325 446.59091393809683 407.55506703047854C454.356065668679 408.83631706602455 457.46212636091184 391.93546432441264 465.2272780914939 392.45961206622695C472.992429822076 392.9837598080412 476.09849051430876 407.97438522392997 483.8636422448909 410.0709761911871C491.62879397547295 412.1675671584443 498.6174305329968 404.0956919345042 502.50000639828784 402.5232487090613 " transform="rotate(30, 400, 400)"></path><path d="M307.74999301043425 409.0638740897991C311.24431128919616 404.2417148651076 317.5340841909677 385.18370297274004 324.52272074849157 385.91750981128007C331.51135730601544 386.65131664982005 334.306811929025 411.3806071086183 341.2954484865488 412.58614691479113C348.28408504407275 413.79168672096404 351.07953966708226 393.2765441063527 358.0681762246062 391.7041008809098C365.05681278213 390.13165765546694 367.85226740513957 403.4659762072225 374.84090396266345 405.03841943266536C381.8295405201873 406.61086265810826 384.6249951431969 397.4173112666856 391.61363170072076 399.2518283630356C398.60226825824464 401.0863454593856 401.3977228812542 416.2551811074912 408.3863594387781 413.8441014951454C415.3749959963019 411.4330218827997 418.1704506193115 389.1462599008561 425.1590871768353 387.67864622377607C432.1477237343592 386.21103254669606 434.94317835736877 405.64643081316996 441.93181491489264 406.79955584516136C448.9204514724165 407.95268087715283 451.7159060954261 392.7419134097021 458.70454265294995 393.21364637733495C465.6931792104739 393.6853793449678 468.4886338334834 407.1769422192677 475.4772703910072 409.0638740897991C482.46590694853114 410.95080596033057 488.7556798503026 403.6861182587845 492.2499981290646 402.2709193558859 " transform="rotate(27, 400, 400)"></path><path d="M317.9999929393422 408.0567824788286C321.10605363157504 403.77041872354727 326.6969628775941 386.8299637081094 332.90908426205976 387.4822364534783C339.1212056465254 388.1345091988472 341.6060542003117 410.116100717779 347.81817558477735 411.18769165659927C354.03029696924307 412.2592825954196 356.51514552302933 394.0236002713207 362.72726690749494 392.62587295981587C368.93938829196065 391.2281456483111 371.4242368457469 403.0808732498716 377.6363582302126 404.47860056137637C383.84847961467824 405.8763278728811 386.3333281684645 397.7042821916166 392.54544955293017 399.33496405503877C398.7575709373958 400.96564591846106 401.2424194911821 414.44905538344375 407.4545408756478 412.3058735058031C413.6666622601134 410.16269162816246 416.15151081389973 390.35223653310146 422.3636321983654 389.0476910423637C428.575753582831 387.74314555162584 431.06060213661726 405.01905512182486 437.272723521083 406.0440551502617C443.48484490554864 407.06905517869853 445.9696934593349 393.54837298540906 452.18181484380057 393.9676911788605C458.3939362282663 394.3870093723119 460.87878478205255 406.3795097050229 467.09090616651815 408.0567824788286C473.3030275509838 409.73405525263433 478.8939367970029 403.27655507348226 481.99999748923574 402.01860049312796 " transform="rotate(24, 400, 400)"></path><path d="M328.24999286825005 407.0496870531608C330.9677959739538 403.29911876728966 335.8598415642205 388.4762206287815 341.29544777562796 389.0469592809793C346.73105398703547 389.6176979331771 348.90529647159843 408.8515905122424 354.3409026830059 409.78923258371015C359.7765088944133 410.72687465517794 361.9507513789763 394.77065262159135 367.3863575903838 393.5476412240247C372.82196380179124 392.324629826458 374.9962062863542 402.69576647782344 380.4318124977617 403.9187778753901C385.86741870916916 405.14178927295677 388.0416611937321 397.9912493018503 393.47726740513957 399.4180959323447C398.912873616547 400.8449425628392 401.08711610111004 412.6429258446991 406.5227223125175 410.7676417017635C411.95832852392493 408.89235755882794 414.13257100848796 391.5582093506496 419.5681772198954 390.41673204625397C425.00378343130285 389.2752547418584 427.1780259158658 404.39167561578256 432.61363212727326 405.28855064066477C438.04923833868077 406.18542566554703 440.22348082324373 394.3548287464187 445.6590870346512 394.7217321656887C451.0946932460587 395.0886355849587 453.26893573062165 405.5820733760808 458.7045419420291 407.0496870531608C464.1401481534365 408.51730073024083 469.03219374370326 402.8669880734828 471.749996849407 401.76627781567277 " transform="rotate(21, 400, 400)"></path><path d="M338.4999966118553 406.0425878127958C340.8295421310299 402.8278149963348 345.0227240655442 390.1224737347564 349.6818151038934 390.61167829378303C354.3409061422427 391.1008828528097 356.2045425575824 407.5870764920085 360.8636335959317 408.3907696961238C365.5227246342809 409.19446290023905 367.38636104962063 395.5177011571648 372.04545208796986 394.46940567353624C376.7045431263191 393.42111018990767 378.5681795416588 402.310655891078 383.22727058000805 403.3589513747066C387.88636161835734 404.40724685833516 389.749998033697 398.27821259738676 394.40908907204624 399.5012239949534C399.0681801103955 400.7242353925201 400.9318165257352 410.83679249125714 405.59090756408443 409.2294060830267C410.2499986024337 407.62201967479615 412.1136350177734 392.76417835350037 416.7727260561227 391.78576923544705C421.4318170944719 390.8073601173937 423.2954535098116 403.764292295043 427.95454454816087 404.5330423163706C432.6136355865101 405.3017923376982 434.4772720018498 395.1612806927311 439.13636304019906 395.47576933781966C443.79545407854835 395.79025798290826 445.659090493888 404.7846332324415 450.31818153223725 406.0425878127958C454.9772725705865 407.30054239315007 459.1704545051008 402.457417258786 461.50000002427544 401.5139513235203 " transform="rotate(18, 400, 400)"></path><path d="M348.74999654076316 405.0354866650821C350.6912844734087 402.35650931803127 354.18560275217067 391.7687249333826 358.0681786174617 392.1763953992382C361.9507544827527 392.5840658650937 363.50378482886913 406.32256056442606 367.3863606941602 406.9923049011888C371.2689365594512 407.66204923795146 372.82196690556765 396.2647477853896 376.70454277085867 395.3911682156991C380.58711863614974 394.5175886460087 382.14014898226617 401.9255433969839 386.0227248475572 402.7991229666744C389.9053007128482 403.6727025363649 391.45833105896463 398.5651739855746 395.3409069242557 399.5843501502135C399.2234827895467 400.6035263148524 400.77651313566315 409.03065723046655 404.65908900095417 407.69116855694114C408.54166486624524 406.3516798834157 410.09469521236167 393.97014544900264 413.9772710776527 393.1548045172915C417.8598469429437 392.33946358558035 419.41287728906013 403.1369070669548 423.29545315435115 403.7775320847278C427.1780290196422 404.4181571025008 428.73105936575865 395.96773073169487 432.61363523104967 396.22980460260203C436.49621109634074 396.49187847350913 438.0492414424571 403.9871911814535 441.9318173077482 405.0354866650821C445.8143931730392 406.08378214871067 449.3087114518012 402.0478445367406 451.24999938444665 401.2616229240192 " transform="rotate(15, 400, 400)"></path><path d="M358.9999964696711 404.0283912394143C360.5530268157875 401.88520936177366 363.3484814387971 393.4149818540547 366.4545421310299 393.74111822673916C369.5606028232627 394.0672545994236 370.8030271001559 405.0580503588895 373.9090877923887 405.59384582829966C377.01514848462153 406.1296412977098 378.25757276151467 397.01180013566034 381.36363345374747 396.31293647990793C384.4696941459803 395.6140728241555 385.71211842287346 401.5404366249358 388.8181791151063 402.2393002806882C391.9242398073391 402.93816393644056 393.16666408423225 398.8521410958083 396.2727247764651 399.6674820275194C399.3787854686979 400.48282295923053 400.62120974559105 407.2245276917219 403.7272704378239 406.15293675290155C406.8333311300567 405.08134581408126 408.07575540694984 395.1761182665507 411.1818160991827 394.52384552118184C414.2878767914155 393.8715727758129 415.53030106830863 402.50952756091243 418.6363617605415 403.0220275751309C421.74242245277435 403.5345275893493 422.9848467296674 396.77418649270453 426.0909074219003 396.98384558943025C429.19696811413314 397.19350468615596 430.4393923910263 403.18975485251144 433.5454530832591 404.0283912394143C436.65151377549194 404.86702762631717 439.44696839850144 401.63827753674116 440.99999874461787 401.00930024656395 " transform="rotate(12, 400, 400)"></path><path d="M369.249996398579 403.02129199904925C370.41476915816634 401.4139055908188 372.5113601254235 395.06123496002954 374.8409056445981 395.3058372395429C377.1704511637727 395.5504395190562 378.10226937144256 403.79353633865566 380.4318148906172 404.1953829407133C382.7613604097918 404.5972295427709 383.6931786174617 397.75884867123375 386.02272413663627 397.2347009294195C388.3522696558109 396.71055318760517 389.28408786348075 401.15532603819037 391.6136333826554 401.6794737800047C393.94317890183004 402.20362152181895 394.8749971094999 399.13910439134474 397.2045426286745 399.7506100901281C399.5340881478491 400.3621157889114 400.465906355519 405.41839433827994 402.7954518746936 404.6147011341647C405.1249973938682 403.81100793004947 406.05681560153806 396.38208726940155 408.3863611207127 395.8928827103749C410.7159066398873 395.40367815134823 411.64772484755713 401.88214424017286 413.9772703667318 402.26651925083667C416.3068158859064 402.65089426150047 417.23863409357625 397.5806384390169 419.5681796127509 397.7378827615612C421.89772513192554 397.89512708410547 422.8295433395954 402.3923147088721 425.15908885877 403.02129199904925C427.4886343779446 403.6502692892264 429.58522534520176 401.22870672204436 430.7499981047891 400.7569737544115 " transform="rotate(9, 400, 400)"></path><path d="M379.50000014218415 402.01419657338147C380.27651531524236 400.9426056345611 381.6742426267472 396.7074918807017 383.2272729728636 396.8705600670439C384.78030331898 397.0336282533861 385.40151545742657 402.52902613311903 386.95454580354294 402.79692386782415C388.50757614965937 403.0648216025292 389.12878828810597 398.5059010215045 390.6818186342224 398.1564691936283C392.2348489803388 397.8070373657521 392.85606111878536 400.7702192661422 394.4090914649018 401.1196510940184C395.96212181101816 401.4690829218946 396.58333394946476 399.42607150157846 398.1363642955812 399.83374196743404C399.6893946416976 400.24141243328955 400.31060678014416 403.61226479953524 401.8636371262606 403.07646933012506C403.41666747237696 402.54067386071495 404.03787961082355 397.58806008694967 405.59090995694 397.2619237142652C407.1439403030564 396.9357873415808 407.76515244150295 401.25476473413056 409.3181827876194 401.51101474123976C410.8712131337358 401.76726474834896 411.49242527218234 398.3870942000266 413.0454556182988 398.4919237483894C414.5984859644152 398.5967532967523 415.2196981028618 401.59487837993004 416.77272844897817 402.01419657338147C418.3257587950946 402.4335147668329 419.72348610659935 400.8191397220449 420.50000127965757 400.5046510769563 " transform="rotate(6, 400, 400)"></path><path d="M389.7500000710921 401.0070973330164C390.1382576576212 400.47130186360624 390.8371213133736 398.35374498667653 391.6136364864318 398.43527907984765C392.39015165949 398.51681317301876 392.70075772871326 401.2645121128852 393.47727290177147 401.39846098023776C394.2537880748297 401.5324098475903 394.564394144053 399.25294955707795 395.3409093171112 399.0782336431398C396.1174244901694 398.9035177292017 396.4280305593927 400.3851086793968 397.20454573245087 400.5598245933349C397.9810609055091 400.734540507273 398.2916669747324 399.7130347971149 399.0681821477906 399.9168700300427C399.8446973208488 400.1207052629705 400.15530339007205 401.80613144609333 400.93181856313026 401.5382337113882C401.7083337361885 401.27033597668316 402.0189398054118 398.7940290898005 402.79545497847 398.6309609034583C403.5719701515282 398.46789271711606 403.8825762207515 400.62738141339094 404.6590913938097 400.75550641694554C405.43560656686793 400.88363142050014 405.7462126360912 399.193546146339 406.5227278091494 399.2459609205204C407.2992429822076 399.2983756947018 407.6098490514309 400.7974382362907 408.38636422448906 401.0070973330164C409.1628793975473 401.21675642974213 409.8617430532997 400.4095689073481 410.2500006398288 400.25232458480383 " transform="rotate(3, 400, 400)"></path></g></svg>